<?xml version="1.0" encoding="utf-8"?>
<!-- Generator: Adobe Illustrator 16.0.0, SVG Export Plug-In . SVG Version: 6.00 Build 0)  -->
<!DOCTYPE svg PUBLIC "-//W3C//DTD SVG 1.1//EN" "http://www.w3.org/Graphics/SVG/1.1/DTD/svg11.dtd">
<svg version="1.1" xmlns="http://www.w3.org/2000/svg" xmlns:xlink="http://www.w3.org/1999/xlink" x="0px" y="0px" width="160px"
	 height="100px" viewBox="0 0 160 100" enable-background="new 0 0 160 100" xml:space="preserve">
<g id="elementos">
	<g>
		<g>
			<path fill="#2D2D2D" d="M47.229,62.554c0.222,0.53,0.441,1.063,0.656,1.601c0.215-0.553,0.438-1.098,0.667-1.635
				c0.23-0.538,0.476-1.052,0.737-1.543l9.856-18.446c0.123-0.23,0.249-0.415,0.38-0.553c0.13-0.138,0.276-0.238,0.438-0.299
				c0.161-0.061,0.341-0.1,0.541-0.115c0.199-0.015,0.438-0.023,0.714-0.023h4.675V74.84h-5.458V53.332
				c0-0.399,0.011-0.836,0.034-1.313c0.023-0.476,0.058-0.959,0.104-1.451L50.51,69.451c-0.23,0.43-0.53,0.764-0.898,1.002
				c-0.369,0.238-0.798,0.357-1.29,0.357h-0.852c-0.492,0-0.921-0.119-1.29-0.357c-0.369-0.238-0.668-0.572-0.898-1.002
				L35.082,50.499c0.061,0.507,0.104,1.002,0.126,1.485s0.035,0.933,0.035,1.347V74.84h-5.458V41.541h4.674
				c0.276,0,0.514,0.008,0.714,0.023c0.2,0.016,0.38,0.054,0.542,0.115c0.161,0.062,0.311,0.161,0.449,0.299
				s0.269,0.323,0.392,0.553l9.948,18.492C46.764,61.515,47.006,62.025,47.229,62.554z"/>
			<path fill="#2D2D2D" d="M102.185,58.19c0,2.441-0.407,4.683-1.22,6.724c-0.814,2.042-1.958,3.8-3.431,5.273
				c-1.474,1.474-3.247,2.618-5.32,3.431c-2.072,0.814-4.368,1.221-6.885,1.221H72.617V41.541h12.711
				c2.518,0,4.813,0.411,6.885,1.232c2.073,0.822,3.846,1.965,5.32,3.431c1.474,1.466,2.617,3.221,3.431,5.262
				C101.778,53.508,102.185,55.75,102.185,58.19z M95.853,58.19c0-1.827-0.246-3.466-0.737-4.917
				c-0.492-1.451-1.19-2.679-2.096-3.685c-0.906-1.005-2.007-1.777-3.305-2.314c-1.297-0.538-2.76-0.806-4.387-0.806h-6.471v23.442
				h6.471c1.627,0,3.089-0.268,4.387-0.806c1.297-0.537,2.398-1.309,3.305-2.314c0.906-1.005,1.604-2.234,2.096-3.685
				C95.606,61.656,95.853,60.018,95.853,58.19z"/>
			<path fill="#2D2D2D" d="M124.488,62.554c0.222,0.53,0.441,1.063,0.656,1.601c0.215-0.553,0.438-1.098,0.667-1.635
				c0.23-0.538,0.476-1.052,0.737-1.543l9.856-18.446c0.123-0.23,0.249-0.415,0.38-0.553c0.13-0.138,0.276-0.238,0.438-0.299
				c0.161-0.061,0.341-0.1,0.541-0.115c0.199-0.015,0.438-0.023,0.714-0.023h4.675V74.84h-5.458V53.332
				c0-0.399,0.011-0.836,0.034-1.313c0.023-0.476,0.058-0.959,0.104-1.451l-10.063,18.883c-0.23,0.43-0.53,0.764-0.898,1.002
				c-0.369,0.238-0.798,0.357-1.29,0.357h-0.852c-0.492,0-0.921-0.119-1.29-0.357c-0.369-0.238-0.668-0.572-0.898-1.002
				L112.34,50.499c0.061,0.507,0.104,1.002,0.126,1.485s0.035,0.933,0.035,1.347V74.84h-5.458V41.541h4.674
				c0.276,0,0.514,0.008,0.714,0.023c0.2,0.016,0.38,0.054,0.542,0.115c0.161,0.062,0.311,0.161,0.449,0.299
				s0.269,0.323,0.392,0.553l9.948,18.492C124.023,61.515,124.265,62.025,124.488,62.554z"/>
		</g>
		<g>
			<path fill="#13E8DD" d="M18.078,26.996c1.282-0.207,3.589,2.308,6.919,7.541l4.553,5.83c2.163-0.349,3.364,0.22,3.603,1.703
				c0.082,0.51-0.261,1.136-1.029,1.878l1.754,3.807c0.159,0.989-0.391,1.712-1.648,2.168c-1.206,0.193-2.254-1.001-3.145-3.584
				c-0.551-0.862-0.904-1.281-1.058-1.256c-3.616,0.581-7.461,1.708-11.536,3.378c-0.231,0.339-0.348,0.991-0.351,1.958
				c-0.163,0.565-0.628,1.021-1.397,1.366c-1.05,0.17-1.85-0.463-2.397-1.896l-0.03-0.186c0.37-2.723,1.147-6.366,2.33-10.932
				c0.324-3.508,0.878-6.958,1.664-10.35C16.746,27.591,17.335,27.115,18.078,26.996z M19.185,33.285l-0.839,6.603l-0.887,3.947
				l0.093-0.015l7.917-2.226l-0.015-0.093l-6.083-8.247L19.185,33.285z"/>
			<path fill="#13E8DD" d="M38.433,26.858c3.909-0.629,6.4,0.271,7.472,2.697c0.163,0.228,0.28,0.558,0.35,0.99l0.045,0.278
				c0.343,2.132-1.033,5.207-4.127,9.224l0.015,0.093l0.387,0.033l3.864-0.813c0.973-0.156,1.67,0.43,2.089,1.757
				c0.199,1.236-0.783,2.028-2.946,2.376l-3.323,0.63l-1.762,0.283c-0.43,0.085-0.636,0.183-0.619,0.29
				c0.95,0.782,1.461,1.397,1.533,1.846c-0.063,1.278-0.582,1.996-1.556,2.152l-0.186,0.03c-0.85,0.137-2.203-0.787-4.06-2.771
				c-0.534-0.168-1.02-0.819-1.456-1.953c-1.62-2.086-3.747-5.452-6.381-10.102c-0.186,0.03-0.364-0.29-0.535-0.96
				c-0.114-0.711,0.308-1.635,1.266-2.771C33.146,28.28,36.455,27.177,38.433,26.858z M31.744,33.166
				c2.647,4.536,4.254,7.035,4.821,7.499l0.093-0.015c3.883-4.335,5.804-7.37,5.763-9.107l-0.06-0.37
				c-0.109-0.681-1.246-0.847-3.408-0.498C34.086,31.965,31.684,32.796,31.744,33.166z"/>
			<path fill="#13E8DD" d="M64.304,24.502c1.607-0.258,2.525,0.323,2.753,1.745c-0.13,1.162-0.658,1.817-1.585,1.967
				c-2.457,0.396-5.019,1.22-7.687,2.474c0.107,0.664,1.849,4.79,5.226,12.379l0.015,0.093c0.164,1.021-0.391,1.712-1.664,2.075
				c-1.19,0.191-2.299-1.184-3.327-4.125c-2.428-5.236-3.718-8.326-3.869-9.269l-6.526,2.001c-0.989,0.159-1.711-0.391-2.167-1.648
				c-0.229-1.422,0.955-2.342,3.55-2.759l14.075-4.738L64.304,24.502z"/>
		</g>
	</g>
</g>
<g id="imagenes">
</g>
<g id="texto">
</g>
<g id="grilla">
</g>
</svg>
