<svg id="Capa_1" data-name="Capa 1" xmlns="http://www.w3.org/2000/svg" viewBox="0 0 160 100"><defs><style>.cls-1{font-size:45.44px;fill:#2c2c2c;stroke:#2c2c2c;stroke-miterlimit:10;stroke-width:2.96px;font-family:Lato-Black, Lato;letter-spacing:0.05em;}.cls-2{fill:#45a2aa;}</style></defs><title>Mesa de trabajo 1</title><text class="cls-1" transform="translate(21.62 74.13) scale(1 1.01)">MDM</text><path class="cls-2" d="M13.38,24.69q1.9-.32,6.83,7.44l4.49,5.75c2.14-.35,3.32.21,3.56,1.68.08.5-.26,1.12-1,1.85L29,45.17q.24,1.45-1.62,2.13-1.79.3-3.11-3.53c-.54-.85-.89-1.26-1-1.24a51.55,51.55,0,0,0-11.38,3.33,3.72,3.72,0,0,0-.35,1.93,2.24,2.24,0,0,1-1.38,1.35c-1,.17-1.82-.45-2.36-1.87l0-.18A96.64,96.64,0,0,1,10,36.3a75.67,75.67,0,0,1,1.64-10.21A2.37,2.37,0,0,1,13.38,24.69Zm1.1,6.2-.83,6.51-.88,3.9.09,0,7.81-2.19V39l-6-8.14Z"/><path class="cls-2" d="M33.47,24.55q5.78-.93,7.37,2.66a2.38,2.38,0,0,1,.34,1l0,.27q.51,3.16-4.08,9.1l0,.09.38,0,3.81-.8c1-.16,1.65.42,2.06,1.73.2,1.22-.77,2-2.9,2.34l-3.28.62-1.74.28c-.42.09-.63.18-.61.29.94.77,1.44,1.38,1.51,1.82-.06,1.26-.57,2-1.53,2.12l-.18,0q-1.26.21-4-2.73c-.53-.17-1-.81-1.44-1.93A90.47,90.47,0,0,1,23,31.5c-.18,0-.36-.29-.53-.95s.3-1.61,1.25-2.73A52.27,52.27,0,0,1,33.47,24.55Zm-6.6,6.22q3.91,6.72,4.75,7.4h.09q5.76-6.42,5.69-9l-.06-.36c-.11-.68-1.23-.84-3.36-.5Q26.78,30.23,26.87,30.77Z"/><path class="cls-2" d="M59,22.22c1.59-.25,2.49.32,2.72,1.73-.13,1.14-.65,1.79-1.57,1.94a28.47,28.47,0,0,0-7.58,2.44c.11.65,1.82,4.72,5.16,12.21v.09c.16,1-.38,1.69-1.64,2q-1.77.28-3.28-4.07-3.6-7.76-3.82-9.14l-6.44,2c-1,.16-1.69-.39-2.14-1.63-.22-1.4.94-2.31,3.51-2.72L57.8,22.42Z"/></svg>